<svg viewBox="0 0 24 24" fill="none" xmlns="http://www.w3.org/2000/svg">
  <defs>
    <linearGradient id="gradient1" x1="0%" y1="0%" x2="100%" y2="100%">
      <stop offset="0%" stop-color="#4F46E5" />
      <stop offset="100%" stop-color="#7C3AED" />
    </linearGradient>
  </defs>
  <!-- Git branch structure -->
  <path
    d="M6 3a3 3 0 1 0 0 6 3 3 0 0 0 0-6zM18 15a3 3 0 1 0 0 6 3 3 0 0 0 0-6z"
    fill="url(#gradient1)"
  />
  <path
    d="M6 9v6M18 15V9a2 2 0 0 0-2-2H8"
    stroke="url(#gradient1)"
    stroke-width="2"
    stroke-linecap="round"
  />
  <!-- AI sparkles -->
  <circle cx="12" cy="5" r="1" fill="#F59E0B" />
  <circle cx="14" cy="7" r="0.5" fill="#F59E0B" />
  <circle cx="10" cy="8" r="0.5" fill="#F59E0B" />
  <path
    d="M15 12l1.5-1.5M15 12l1.5 1.5M15 12h2"
    stroke="#F59E0B"
    stroke-width="1.5"
    stroke-linecap="round"
  />
</svg>